<svg width="46" height="46" viewBox="0 0 46 46" fill="none" xmlns="http://www.w3.org/2000/svg">
<rect width="46" height="46" rx="4" fill="#CABDFC"/>
<path d="M30.6406 18.5375L27.4906 21.5L30.4906 29.75L28.2406 32L23.7594 25.4375L21.4906 27.5V29.75L19.2406 32L17.9094 28.0719L13.9906 26.75L16.2406 24.5H18.4906L20.7406 22.25L13.9906 17.75L16.2406 15.5L24.4906 18.5L27.4625 15.3594L27.3969 15.4062C27.8195 14.9836 28.3928 14.7461 28.9906 14.7461C29.5884 14.7461 30.1617 14.9836 30.5844 15.4062C31.007 15.8289 31.2445 16.4022 31.2445 17C31.2445 17.5978 31.007 18.1711 30.5844 18.5937L30.6406 18.5375Z" stroke="#F8F7FF" stroke-width="1.5" stroke-linecap="round" stroke-linejoin="round"/>
</svg>
