<svg width="46" height="46" viewBox="0 0 46 46" fill="none" xmlns="http://www.w3.org/2000/svg">
<rect width="46" height="46" rx="4" fill="#FEA3D4"/>
<path d="M15.8563 22.4282C15.7455 22.2361 15.5979 22.0678 15.422 21.9328C15.2462 21.7977 15.0454 21.6986 14.8313 21.6412C14.6171 21.5837 14.3938 21.569 14.1739 21.5979C13.9541 21.6268 13.7421 21.6987 13.55 21.8095C13.358 21.9203 13.1896 22.0678 13.0546 22.2437C12.9195 22.4195 12.8205 22.6203 12.763 22.8344C12.7055 23.0486 12.6908 23.272 12.7197 23.4918C12.7486 23.7116 12.8205 23.9236 12.9313 24.1157L16.4 30.1251C17.3043 31.6571 18.7768 32.7702 20.4974 33.2223C22.218 33.6745 24.0475 33.4291 25.5881 32.5396C27.1287 31.65 28.2559 30.1883 28.7245 28.4721C29.1931 26.7559 28.9653 24.9242 28.0906 23.3751L26.4969 20.6095C26.2594 20.2512 25.8941 19.9972 25.4757 19.8991C25.0572 19.8009 24.6171 19.8662 24.2451 20.0815C23.8732 20.2968 23.5974 20.6459 23.474 21.0576C23.3506 21.4693 23.389 21.9126 23.5813 22.297" stroke="#FFF8FC" stroke-width="1.5" stroke-linecap="round" stroke-linejoin="round"/>
<path d="M21.0312 24.6404L17.4687 18.4716C17.3579 18.2796 17.2104 18.1112 17.0345 17.9762C16.8587 17.8412 16.6579 17.7421 16.4438 17.6846C16.2296 17.6272 16.0062 17.6125 15.7864 17.6413C15.5666 17.6702 15.3546 17.7421 15.1625 17.8529C14.9704 17.9637 14.8021 18.1112 14.667 18.2871C14.532 18.463 14.4329 18.6637 14.3755 18.8779C14.318 19.092 14.3033 19.3154 14.3322 19.5352C14.3611 19.7551 14.4329 19.9671 14.5437 20.1591L18.1062 26.3279" stroke="#FFF8FC" stroke-width="1.5" stroke-linecap="round" stroke-linejoin="round"/>
<path d="M25.0812 24.9031L21.1437 18.0781C20.92 17.6902 20.5513 17.4071 20.1188 17.2911C19.6863 17.175 19.2254 17.2356 18.8375 17.4593C18.4496 17.6831 18.1665 18.0518 18.0505 18.4843C17.9344 18.9168 17.995 19.3777 18.2187 19.7656" stroke="#FFF8FC" stroke-width="1.5" stroke-linecap="round" stroke-linejoin="round"/>
<path d="M20.2812 17.347L19.3156 15.6689C19.0918 15.281 18.7231 14.9979 18.2906 14.8819C17.8581 14.7659 17.3972 14.8264 17.0094 15.0502C16.6215 15.2739 16.3384 15.6426 16.2223 16.0751C16.1063 16.5076 16.1668 16.9685 16.3906 17.3564L16.6156 17.7408" stroke="#FFF8FC" stroke-width="1.5" stroke-linecap="round" stroke-linejoin="round"/>
<path d="M28.625 28.9529C29.7692 27.9168 30.5244 26.5203 30.7648 24.9955C31.0053 23.4708 30.7167 21.9096 29.9469 20.5716L28.3531 17.8154C28.2423 17.6233 28.0948 17.455 27.9189 17.3199C27.7431 17.1849 27.5423 17.0858 27.3282 17.0284C27.114 16.9709 26.8906 16.9562 26.6708 16.9851C26.451 17.0139 26.239 17.0858 26.0469 17.1966C25.8548 17.3074 25.6865 17.455 25.5514 17.6309C25.4164 17.8067 25.3173 18.0075 25.2599 18.2216C25.2024 18.4358 25.1877 18.6591 25.2166 18.879C25.2455 19.0988 25.3173 19.3108 25.4281 19.5029" stroke="#FFF8FC" stroke-width="1.5" stroke-linecap="round" stroke-linejoin="round"/>
<path d="M25.6437 19.8779L22.9906 15.2841C22.7668 14.8963 22.3981 14.6132 21.9656 14.4971C21.5331 14.3811 21.0722 14.4416 20.6844 14.6654C20.2965 14.8892 20.0134 15.2579 19.8973 15.6904C19.7813 16.1229 19.8418 16.5838 20.0656 16.9716" stroke="#FFF8FC" stroke-width="1.5" stroke-linecap="round" stroke-linejoin="round"/>
<path d="M27.575 12.0596L27.1906 13.5033" stroke="#FFF8FC" stroke-width="1.5" stroke-linecap="round" stroke-linejoin="round"/>
<path d="M30.4156 13.3813L29.5531 14.6095" stroke="#FFF8FC" stroke-width="1.5" stroke-linecap="round" stroke-linejoin="round"/>
<path d="M32.6188 15.5845L31.3906 16.447" stroke="#FFF8FC" stroke-width="1.5" stroke-linecap="round" stroke-linejoin="round"/>
</svg>
