<svg width="46" height="46" viewBox="0 0 46 46" fill="none" xmlns="http://www.w3.org/2000/svg">
<rect width="46" height="46" rx="4" fill="#7CD4FD"/>
<path d="M23.1406 29.0281C23.2829 29.4141 23.5282 29.7536 23.8499 30.0099C24.1716 30.2661 24.5574 30.4293 24.9653 30.4817C25.3733 30.5341 25.7878 30.4736 26.1638 30.3069C26.5398 30.1402 26.8629 29.8736 27.098 29.5361C27.3331 29.1986 27.4712 28.8031 27.4973 28.3926C27.5233 27.9821 27.4364 27.5724 27.2459 27.2078C27.0554 26.8433 26.7686 26.538 26.4167 26.325C26.0648 26.1121 25.6613 25.9997 25.25 26H14.75" stroke="#F0F9FF" stroke-width="1.5" stroke-linecap="round" stroke-linejoin="round"/>
<path d="M20.1406 16.9719C20.2829 16.586 20.5282 16.2464 20.8499 15.9901C21.1716 15.7339 21.5574 15.5707 21.9653 15.5183C22.3733 15.4659 22.7878 15.5264 23.1638 15.6931C23.5398 15.8598 23.8629 16.1264 24.098 16.4639C24.3331 16.8014 24.4712 17.1969 24.4973 17.6074C24.5233 18.0179 24.4364 18.4276 24.2459 18.7922C24.0554 19.1567 23.7686 19.462 23.4167 19.675C23.0648 19.8879 22.6613 20.0003 22.25 20H13.25" stroke="#F0F9FF" stroke-width="1.5" stroke-linecap="round" stroke-linejoin="round"/>
<path d="M28.3906 19.9719C28.5329 19.586 28.7782 19.2464 29.0999 18.9901C29.4216 18.7339 29.8074 18.5707 30.2153 18.5183C30.6233 18.4659 31.0378 18.5264 31.4138 18.6931C31.7898 18.8598 32.1129 19.1264 32.348 19.4639C32.5831 19.8014 32.7212 20.1969 32.7473 20.6074C32.7733 21.0179 32.6864 21.4276 32.4959 21.7922C32.3054 22.1567 32.0186 22.462 31.6667 22.675C31.3148 22.8879 30.9113 23.0003 30.5 23H14" stroke="#F0F9FF" stroke-width="1.5" stroke-linecap="round" stroke-linejoin="round"/>
</svg>
